<svg width="24" height="24" viewBox="0 0 24 24" fill="none" xmlns="http://www.w3.org/2000/svg">
<path d="M13.2001 8.40005C16.1581 8.40005 17.8357 10.2888 18.0793 12.5688H18.1537C20.0569 12.5688 21.6001 14.0532 21.6001 15.8844C21.6001 17.7156 20.0569 19.2 18.1537 19.2H8.24651C6.34331 19.2 4.80011 17.7156 4.80011 15.8844C4.80011 14.0532 6.34331 12.5688 8.24651 12.5688H8.32091C8.56691 10.2732 10.2421 8.40005 13.2001 8.40005ZM10.0705 4.80005C11.8177 4.80005 13.3417 5.79365 14.0941 7.25405C13.7975 7.21768 13.4989 7.19965 13.2001 7.20005C10.3321 7.20005 8.24171 8.76845 7.49531 11.1432L7.42091 11.4L7.36571 11.6244L7.16771 11.6604C6.44303 11.8081 5.76616 12.1327 5.19747 12.6055C4.62878 13.0783 4.18596 13.6845 3.90851 14.37C3.33684 14.0218 2.89115 13.5002 2.63624 12.8812C2.38132 12.2623 2.33046 11.5781 2.49105 10.9282C2.65165 10.2784 3.01532 9.69668 3.52921 9.26768C4.04309 8.83869 4.68041 8.58478 5.34851 8.54285L5.61491 8.53685C5.79995 7.48964 6.34798 6.54109 7.16278 5.85774C7.97759 5.17438 9.00708 4.7999 10.0705 4.80005Z" />
</svg>
