<svg width="24" height="24" viewBox="0 0 24 24" fill="none" xmlns="http://www.w3.org/2000/svg">
<path d="M11.3999 20.4001C11.559 20.4001 11.7116 20.4633 11.8242 20.5758C11.9367 20.6883 11.9999 20.8409 11.9999 21.0001C11.9999 21.1592 11.9367 21.3118 11.8242 21.4243C11.7116 21.5369 11.559 21.6001 11.3999 21.6001C11.2408 21.6001 11.0882 21.5369 10.9756 21.4243C10.8631 21.3118 10.7999 21.1592 10.7999 21.0001C10.7999 20.8409 10.8631 20.6883 10.9756 20.5758C11.0882 20.4633 11.2408 20.4001 11.3999 20.4001ZM14.9999 20.4001C15.159 20.4001 15.3116 20.4633 15.4242 20.5758C15.5367 20.6883 15.5999 20.8409 15.5999 21.0001C15.5999 21.1592 15.5367 21.3118 15.4242 21.4243C15.3116 21.5369 15.159 21.6001 14.9999 21.6001C14.8408 21.6001 14.6882 21.5369 14.5756 21.4243C14.4631 21.3118 14.3999 21.1592 14.3999 21.0001C14.3999 20.8409 14.4631 20.6883 14.5756 20.5758C14.6882 20.4633 14.8408 20.4001 14.9999 20.4001ZM9.59991 19.2001C9.75903 19.2001 9.91165 19.2633 10.0242 19.3758C10.1367 19.4883 10.1999 19.6409 10.1999 19.8001C10.1999 19.9592 10.1367 20.1118 10.0242 20.2243C9.91165 20.3369 9.75903 20.4001 9.59991 20.4001C9.44077 20.4001 9.28816 20.3369 9.17564 20.2243C9.06312 20.1118 8.99991 19.9592 8.99991 19.8001C8.99991 19.6409 9.06312 19.4883 9.17564 19.3758C9.28816 19.2633 9.44077 19.2001 9.59991 19.2001ZM13.1999 19.2001C13.359 19.2001 13.5116 19.2633 13.6242 19.3758C13.7367 19.4883 13.7999 19.6409 13.7999 19.8001C13.7999 19.9592 13.7367 20.1118 13.6242 20.2243C13.5116 20.3369 13.359 20.4001 13.1999 20.4001C13.0408 20.4001 12.8882 20.3369 12.7756 20.2243C12.6631 20.1118 12.5999 19.9592 12.5999 19.8001C12.5999 19.6409 12.6631 19.4883 12.7756 19.3758C12.8882 19.2633 13.0408 19.2001 13.1999 19.2001ZM16.7999 19.2001C16.959 19.2001 17.1116 19.2633 17.2242 19.3758C17.3367 19.4883 17.3999 19.6409 17.3999 19.8001C17.3999 19.9592 17.3367 20.1118 17.2242 20.2243C17.1116 20.3369 16.959 20.4001 16.7999 20.4001C16.6408 20.4001 16.4882 20.3369 16.3756 20.2243C16.2631 20.1118 16.1999 19.9592 16.1999 19.8001C16.1999 19.6409 16.2631 19.4883 16.3756 19.3758C16.4882 19.2633 16.6408 19.2001 16.7999 19.2001ZM13.1999 7.20007C16.1567 7.20007 17.8355 9.08767 18.0791 11.3689H18.1535C20.0567 11.3689 21.5999 12.8533 21.5999 14.6845C21.5999 16.5157 20.0567 18.0001 18.1535 18.0001H8.2463C6.34311 18.0001 4.7999 16.5157 4.7999 14.6845C4.7999 12.8533 6.34311 11.3689 8.2463 11.3689H8.3207C8.56551 9.07207 10.2419 7.20007 13.1999 7.20007ZM4.5635 10.4401C4.60964 10.5731 4.60751 10.7181 4.55749 10.8498C4.50747 10.9814 4.41275 11.0912 4.2899 11.1601L4.1915 11.2033L3.2303 11.5345C3.08846 11.5841 2.93314 11.5787 2.79509 11.5193C2.65703 11.46 2.54628 11.3509 2.48474 11.2138C2.4232 11.0767 2.41535 10.9215 2.46275 10.7789C2.51015 10.6363 2.60934 10.5167 2.7407 10.4437L2.8391 10.4005L3.8015 10.0693C3.95189 10.0177 4.1166 10.0279 4.25947 10.0976C4.40235 10.1674 4.5117 10.291 4.5635 10.4413V10.4401ZM10.7039 5.40007C11.1023 5.59447 11.4539 5.84767 11.7515 6.14407C9.63711 6.58087 8.1155 7.98367 7.4999 9.93127L7.4219 10.2001L7.3667 10.4245L7.1675 10.4605C6.63516 10.5701 6.127 10.775 5.6675 11.0653C5.20368 10.3428 4.98881 9.48842 5.05565 8.63246C5.1225 7.77649 5.4674 6.96586 6.03777 6.32413C6.60814 5.68239 7.3727 5.24476 8.2149 5.07793C9.05711 4.9111 9.93077 5.02423 10.7027 5.40007H10.7039ZM3.5003 5.60407L3.5999 5.64247L4.5143 6.08767C4.64911 6.1532 4.7545 6.26681 4.80974 6.40614C4.86499 6.54547 4.86608 6.70044 4.81281 6.84054C4.75954 6.98063 4.65576 7.09572 4.5219 7.16315C4.38804 7.23058 4.23379 7.24546 4.0895 7.20487L3.9875 7.16647L3.0743 6.72127C2.9395 6.65574 2.83411 6.54213 2.77887 6.4028C2.72362 6.26347 2.72253 6.1085 2.7758 5.96841C2.82907 5.82831 2.93285 5.71322 3.06671 5.64579C3.20057 5.57837 3.35482 5.56348 3.4991 5.60407H3.5003ZM11.9879 2.75407C12.1142 2.81571 12.2149 2.91976 12.2724 3.04806C12.3299 3.17636 12.3404 3.32076 12.3023 3.45607L12.2639 3.55687L11.8187 4.47127C11.7532 4.60607 11.6396 4.71146 11.5002 4.76671C11.3609 4.82195 11.2059 4.82305 11.0658 4.76978C10.9257 4.71651 10.8107 4.61273 10.7432 4.47887C10.6758 4.34501 10.6609 4.19075 10.7015 4.04647L10.7399 3.94447L11.1851 3.03007C11.2197 2.95906 11.2679 2.89557 11.3271 2.84324C11.3862 2.79091 11.4551 2.75077 11.5298 2.72513C11.6045 2.69949 11.6835 2.68885 11.7623 2.69381C11.8412 2.69878 11.9182 2.71926 11.9891 2.75407H11.9879ZM7.4399 2.71567L7.4843 2.81407L7.81551 3.77647C7.86419 3.91814 7.85812 4.07289 7.79849 4.21031C7.73887 4.34773 7.62999 4.45787 7.49327 4.51909C7.35655 4.58031 7.20188 4.58817 7.05966 4.54112C6.91743 4.49408 6.79796 4.39554 6.7247 4.26487L6.6803 4.16647L6.3503 3.20527C6.30238 3.06394 6.30885 2.90982 6.36844 2.773C6.42804 2.63618 6.53648 2.52648 6.67261 2.46531C6.80873 2.40414 6.96277 2.3959 7.10464 2.44219C7.24652 2.48849 7.36605 2.58599 7.4399 2.71567Z" />
</svg>
