<svg width="24" height="24" viewBox="0 0 24 24" fill="none" xmlns="http://www.w3.org/2000/svg">
<path d="M11.9999 2.3999C12.2174 2.39991 12.4275 2.47867 12.5914 2.62162C12.7553 2.76457 12.8619 2.96204 12.8915 3.1775L12.8999 3.2999V6.1475L14.7083 4.5587C14.8876 4.40116 15.1222 4.32132 15.3604 4.33674C15.5986 4.35215 15.821 4.46156 15.9785 4.6409C16.136 4.82024 16.2159 5.05482 16.2005 5.29303C16.1851 5.53124 16.0756 5.75356 15.8963 5.9111L12.8999 8.5427V11.0975H15.4571L18.0911 8.1023C18.2335 7.94029 18.4294 7.83482 18.643 7.80509C18.8567 7.77535 19.0739 7.82334 19.2551 7.9403L19.3619 8.0207C19.5239 8.16311 19.6294 8.35897 19.6591 8.57261C19.6889 8.78625 19.6409 9.00347 19.5239 9.1847L19.4435 9.2915L17.8535 11.0975H20.7011C20.9188 11.0976 21.129 11.1765 21.293 11.3197C21.4569 11.4629 21.5634 11.6606 21.5927 11.8763L21.6011 11.9987C21.6011 12.2162 21.5223 12.4263 21.3794 12.5902C21.2364 12.7541 21.039 12.8607 20.8235 12.8903L20.7011 12.8987H17.8511L19.4411 14.7083C19.5835 14.8702 19.663 15.0779 19.6652 15.2935C19.6674 15.5091 19.5922 15.7183 19.4531 15.8831L19.3595 15.9791C19.1974 16.1217 18.9894 16.2012 18.7735 16.2032C18.5576 16.2051 18.3482 16.1294 18.1835 15.9899L18.0887 15.8963L15.4547 12.8987L12.8987 12.8975L12.8999 15.4559L15.8975 18.0887C16.0597 18.231 16.1654 18.4267 16.1954 18.6404C16.2253 18.854 16.1775 19.0713 16.0607 19.2527L15.9803 19.3595C15.8379 19.5215 15.642 19.627 15.4284 19.6567C15.2148 19.6865 14.9975 19.6385 14.8163 19.5215L14.7095 19.4411L12.8987 17.8511V20.6999C12.8987 20.9176 12.8197 21.1278 12.6765 21.2918C12.5333 21.4557 12.3356 21.5622 12.1199 21.5915L11.9975 21.5987C11.78 21.5987 11.5699 21.5199 11.406 21.377C11.2421 21.234 11.1355 21.0366 11.1059 20.8211L11.0975 20.6987V17.8523L9.2927 19.4411C9.11336 19.5986 8.87879 19.6785 8.64058 19.6631C8.40237 19.6477 8.18004 19.5382 8.0225 19.3589C7.86496 19.1796 7.78512 18.945 7.80054 18.7068C7.81595 18.4686 7.92536 18.2462 8.1047 18.0887L11.0987 15.4547V12.8987L8.7551 12.8999L5.9123 16.1375C5.75476 16.3168 5.53244 16.4263 5.29423 16.4417C5.05602 16.4571 4.82144 16.3772 4.6421 16.2197C4.46276 16.0622 4.35335 15.8398 4.33794 15.6016C4.32252 15.3634 4.40236 15.1288 4.5599 14.9495L6.3599 12.8999H3.2999C3.08224 12.8999 2.87196 12.8209 2.70803 12.6777C2.5441 12.5345 2.43761 12.3368 2.4083 12.1211L2.3999 11.9999C2.39991 11.7824 2.47867 11.5723 2.62162 11.4084C2.76457 11.2445 2.96204 11.1379 3.1775 11.1083L3.2999 11.0999L5.9327 11.0987L4.5599 9.5315C4.47806 9.44333 4.41473 9.33964 4.37365 9.22657C4.33257 9.1135 4.31457 8.99334 4.32073 8.8732C4.32688 8.75305 4.35706 8.63536 4.40948 8.52708C4.4619 8.4188 4.53549 8.32212 4.62592 8.24277C4.71634 8.16342 4.82175 8.10301 4.93592 8.0651C5.0501 8.02718 5.17071 8.01255 5.29064 8.02205C5.41056 8.03155 5.52737 8.065 5.63414 8.12042C5.74092 8.17584 5.83551 8.2521 5.9123 8.3447L8.3279 11.0987H11.0975V8.5415L8.1035 5.9087C7.94149 5.76629 7.83602 5.57044 7.80629 5.35679C7.77655 5.14315 7.82454 4.92594 7.9415 4.7447L8.0219 4.6391C8.16415 4.4769 8.35993 4.3712 8.57358 4.34125C8.78723 4.31129 9.00453 4.35908 9.1859 4.4759L9.2915 4.5563L11.0999 6.1463V3.2999C11.1 3.10269 11.1649 2.91097 11.2846 2.75422C11.4042 2.59747 11.5721 2.48437 11.7623 2.4323L11.8787 2.4083L11.9999 2.3999Z" />
</svg>
