<svg width="24" height="24" viewBox="0 0 24 24" fill="none" xmlns="http://www.w3.org/2000/svg">
<path d="M11.47 2.22007C11.6106 2.07962 11.8012 2.00073 12 2.00073C12.1988 2.00073 12.3894 2.07962 12.53 2.22007C12.933 2.62307 14.529 4.34707 16.029 6.58207C17.509 8.78507 19 11.6351 19 14.2501C19 16.7741 18.254 18.7291 16.956 20.0561C15.659 21.3801 13.889 22.0001 12 22.0001C10.11 22.0001 8.341 21.3811 7.044 20.0561C5.746 18.7291 5 16.7741 5 14.2501C5 11.6351 6.492 8.78507 7.971 6.58207C9.471 4.34707 11.067 2.62207 11.47 2.22007Z" fill="#333333"/>
</svg>
