<svg width="24" height="24" viewBox="0 0 24 24" fill="none" xmlns="http://www.w3.org/2000/svg">
<path d="M13.4986 9C12.2362 9.00004 11.0161 9.45496 10.0618 10.2814C9.10749 11.1079 8.48296 12.2505 8.30261 13.5H8.25011C7.25555 13.5 6.30172 13.8951 5.59846 14.5984C4.8952 15.3016 4.50011 16.2554 4.50011 17.25C4.50011 18.2446 4.8952 19.1984 5.59846 19.9017C6.30172 20.6049 7.25555 21 8.25011 21H18.7501C19.7447 21 20.6985 20.6049 21.4018 19.9017C22.105 19.1984 22.5001 18.2446 22.5001 17.25C22.5001 16.2554 22.105 15.3016 21.4018 14.5984C20.6985 13.8951 19.7447 13.5 18.7501 13.5H18.6946C18.5143 12.2508 17.89 11.1083 16.936 10.2819C15.982 9.45549 14.7623 9.0004 13.5001 9H13.4986ZM13.1806 4.23C13.2269 4.14303 13.2556 4.0478 13.2651 3.94974C13.2746 3.85167 13.2647 3.7527 13.2359 3.65847C13.2071 3.56425 13.1601 3.4766 13.0975 3.40056C13.0348 3.32451 12.9578 3.26154 12.8709 3.21525C12.7839 3.16896 12.6887 3.14025 12.5906 3.13076C12.4925 3.12128 12.3936 3.1312 12.2993 3.15996C12.2051 3.18873 12.1175 3.23577 12.0414 3.2984C11.9654 3.36103 11.9024 3.43803 11.8561 3.525L11.2171 4.7295C11.1236 4.90514 11.1037 5.11072 11.1618 5.30103C11.2199 5.49133 11.3512 5.65076 11.5269 5.74425C11.7025 5.83774 11.9081 5.85763 12.0984 5.79954C12.2887 5.74145 12.4481 5.61014 12.5416 5.4345L13.1806 4.2285V4.23ZM7.52261 3.1095C7.49375 3.01524 7.44661 2.92759 7.38388 2.85156C7.32115 2.77552 7.24406 2.71258 7.157 2.66634C7.06995 2.62009 6.97464 2.59145 6.87651 2.58204C6.77839 2.57263 6.67937 2.58264 6.58511 2.6115C6.49086 2.64036 6.40321 2.6875 6.32717 2.75023C6.25113 2.81296 6.18819 2.89006 6.14195 2.97711C6.09571 3.06417 6.06706 3.15948 6.05765 3.2576C6.04824 3.35573 6.05825 3.45474 6.08711 3.549L6.48761 4.854C6.5481 5.04149 6.67993 5.19766 6.85461 5.28875C7.02929 5.37984 7.2328 5.39854 7.42116 5.34081C7.60952 5.28308 7.7676 5.15356 7.86125 4.98023C7.95489 4.8069 7.97657 4.60369 7.92161 4.4145L7.52261 3.1095ZM4.50011 10.5C4.50011 11.406 4.76861 12.249 5.22911 12.9555C5.77961 12.567 6.40961 12.2805 7.08911 12.129C7.47836 10.9555 8.18206 9.91119 9.1236 9.10982C10.0651 8.30846 11.2085 7.7807 12.4291 7.584C11.8325 6.88201 11.0349 6.38004 10.1439 6.14588C9.2529 5.91173 8.31151 5.95667 7.44688 6.27465C6.58225 6.59263 5.83605 7.16832 5.30907 7.92395C4.78209 8.67959 4.49972 9.57876 4.50011 10.5ZM2.73011 6.321C2.64314 6.27471 2.54791 6.246 2.44985 6.23651C2.35178 6.22703 2.25281 6.23695 2.15859 6.26571C2.06436 6.29448 1.97672 6.34152 1.90067 6.40415C1.82462 6.46678 1.76165 6.54378 1.71536 6.63075C1.66907 6.71772 1.64036 6.81295 1.63088 6.91101C1.62139 7.00908 1.63131 7.10805 1.66008 7.20228C1.68884 7.2965 1.73588 7.38414 1.79851 7.46019C1.86115 7.53624 1.93814 7.59921 2.02511 7.6455L3.22961 8.2845C3.40525 8.37799 3.61084 8.39788 3.80114 8.33979C3.99144 8.2817 4.15087 8.15039 4.24436 7.97475C4.33785 7.79911 4.35774 7.59353 4.29965 7.40322C4.24156 7.21292 4.11025 7.05349 3.93461 6.96L2.72861 6.321H2.73011ZM3.35411 13.0155C3.5416 12.955 3.69777 12.8232 3.78886 12.6485C3.87995 12.4738 3.89865 12.2703 3.84092 12.0819C3.7832 11.8936 3.65367 11.7355 3.48034 11.6419C3.30701 11.5482 3.1038 11.5265 2.91461 11.5815L1.60961 11.9805C1.51414 12.0082 1.42514 12.0547 1.34778 12.1171C1.27042 12.1796 1.20625 12.2568 1.15899 12.3442C1.11173 12.4317 1.08234 12.5277 1.07252 12.6266C1.06269 12.7255 1.07264 12.8254 1.10177 12.9205C1.1309 13.0155 1.17864 13.1039 1.24221 13.1803C1.30578 13.2567 1.38392 13.3198 1.47207 13.3657C1.56022 13.4117 1.65663 13.4397 1.75569 13.4481C1.85476 13.4564 1.9545 13.445 2.04911 13.4145L3.35411 13.0155Z" fill="black"/>
</svg>
