<svg width="24" height="24" viewBox="0 0 24 24" fill="none" xmlns="http://www.w3.org/2000/svg">
<path d="M13.7599 13.204C13.9077 13.337 13.9967 13.5233 14.0072 13.7219C14.0177 13.9205 13.9489 14.1151 13.8159 14.263L12.7049 15.499H14.9809C15.1222 15.4988 15.2607 15.5386 15.3804 15.6136C15.5001 15.6887 15.5961 15.7961 15.6575 15.9234C15.7188 16.0507 15.743 16.1927 15.7271 16.3331C15.7113 16.4735 15.6561 16.6066 15.5679 16.717L12.3559 20.748C12.2301 20.8974 12.0509 20.9918 11.8565 21.0111C11.6622 21.0305 11.4679 20.9732 11.3151 20.8515C11.1623 20.7299 11.063 20.5534 11.0383 20.3596C11.0136 20.1659 11.0655 19.9701 11.1829 19.814L13.4249 16.999H11.0219C10.877 16.999 10.7352 16.957 10.6137 16.8781C10.4922 16.7992 10.3961 16.6868 10.3371 16.5545C10.2781 16.4222 10.2586 16.2756 10.2811 16.1325C10.3036 15.9894 10.3671 15.8558 10.4639 15.748L12.6999 13.26C12.7658 13.1867 12.8455 13.127 12.9344 13.0845C13.0234 13.042 13.1198 13.0174 13.2183 13.0122C13.3167 13.007 13.4153 13.0213 13.5082 13.0542C13.6011 13.0871 13.6867 13.138 13.7599 13.204ZM13.0019 5.009C16.1699 5.009 17.9679 7.106 18.2289 9.639H18.3089C18.7932 9.63834 19.2728 9.73309 19.7205 9.91784C20.1681 10.1026 20.575 10.3737 20.9178 10.7157C21.2607 11.0577 21.5328 11.4639 21.7186 11.9111C21.9045 12.3583 22.0004 12.8377 22.0009 13.322C22.0002 13.8062 21.9042 14.2855 21.7183 14.7326C21.5324 15.1797 21.2603 15.5857 20.9175 15.9276C20.5746 16.2695 20.1678 16.5406 19.7202 16.7253C19.2727 16.9099 18.7931 17.0047 18.3089 17.004H16.5619C17.1049 15.891 16.3099 14.499 14.9819 14.499H14.8459C15.0235 14.1186 15.0584 13.687 14.9442 13.2829C14.83 12.8789 14.5744 12.5294 14.224 12.2982C13.8736 12.0669 13.4517 11.9694 13.0353 12.0233C12.6189 12.0773 12.2358 12.2791 11.9559 12.592L9.7209 15.079C9.48666 15.3351 9.33495 15.6558 9.28554 15.9993C9.23614 16.3428 9.29132 16.6933 9.4439 17.005H7.6939C7.20964 17.0057 6.72998 16.9109 6.28234 16.7262C5.83469 16.5414 5.42783 16.2703 5.08498 15.9283C4.74213 15.5863 4.47002 15.1801 4.28418 14.7329C4.09835 14.2857 4.00243 13.8063 4.0019 13.322C4.00243 12.8377 4.09835 12.3583 4.28418 11.9111C4.47002 11.4639 4.74213 11.0577 5.08498 10.7157C5.42783 10.3737 5.83469 10.1026 6.28234 9.91784C6.72998 9.73309 7.20964 9.63834 7.6939 9.639H7.7739C8.0369 7.089 9.8339 5.009 13.0019 5.009ZM9.9999 2C11.6169 2 13.0499 2.815 13.8999 4.062C13.6019 4.02637 13.302 4.00867 13.0019 4.009C10.0079 4.009 7.8309 5.686 7.0649 8.222L6.9969 8.462L6.9389 8.7L6.7329 8.739C5.94449 8.90666 5.21273 9.27505 4.60849 9.80852C4.00424 10.342 3.54798 11.0224 3.2839 11.784C2.75227 11.3763 2.35817 10.8156 2.15453 10.1773C1.9509 9.53899 1.94749 8.85366 2.14477 8.21337C2.34205 7.57309 2.73056 7.00851 3.25812 6.59551C3.78567 6.1825 4.42698 5.94084 5.0959 5.903L5.3529 5.897C5.54627 4.80501 6.11796 3.81598 6.96769 3.10339C7.81742 2.3908 8.89093 2.00016 9.9999 2Z" />
</svg>
