<svg width="24" height="24" viewBox="0 0 24 24" fill="none" xmlns="http://www.w3.org/2000/svg">
<path d="M13.0011 5.99988C16.1696 5.99988 17.9671 8.09688 18.2286 10.6299H18.3086C20.3476 10.6299 22.0006 12.2784 22.0006 14.3124C22.0006 16.3054 20.4131 17.9289 18.4306 17.9924L18.2741 17.9949L16.1241 21.5739C16.0072 21.7649 15.8216 21.9038 15.6054 21.9621C15.3892 22.0203 15.1589 21.9935 14.9619 21.8871C14.7649 21.7807 14.6161 21.6028 14.5463 21.39C14.4765 21.1773 14.4909 20.9458 14.5866 20.7434L14.6241 20.6734L16.2326 17.9949H14.2741L12.1241 21.5739C12.0078 21.7661 11.8221 21.9062 11.6053 21.9652C11.3885 22.0243 11.1574 21.9976 10.9597 21.8909C10.762 21.7842 10.613 21.6055 10.5434 21.3918C10.4739 21.1782 10.4892 20.946 10.5861 20.7434L10.6241 20.6734L12.2326 17.9949H10.2741L8.1241 21.5739C8.00782 21.7661 7.82206 21.9062 7.60529 21.9652C7.38853 22.0243 7.15737 21.9976 6.95969 21.8909C6.76201 21.7842 6.61297 21.6055 6.54342 21.3918C6.47387 21.1782 6.48916 20.946 6.5861 20.7434L6.6241 20.6734L8.2326 17.9949H7.6936C5.6546 17.9949 4.0016 16.3459 4.0016 14.3124C4.0016 12.2784 5.6546 10.6299 7.6936 10.6299H7.7736C8.0366 8.07988 9.83261 5.99988 13.0011 5.99988ZM3.7846 10.0949C3.89344 10.2833 3.92818 10.5055 3.88205 10.7181C3.83592 10.9307 3.71222 11.1185 3.5351 11.2449L3.4641 11.2899L2.8146 11.6649C2.61993 11.7777 2.38929 11.8111 2.17059 11.7583C1.95188 11.7055 1.76193 11.5705 1.64018 11.3813C1.51842 11.1921 1.47422 10.9633 1.51676 10.7423C1.5593 10.5214 1.6853 10.3253 1.8686 10.1949L1.9396 10.1499L2.5896 9.77488C2.79052 9.65891 3.02927 9.62747 3.25335 9.68748C3.47744 9.74749 3.66853 9.89403 3.7846 10.0949ZM10.8546 5.33088C8.9541 5.94088 7.6001 7.37588 7.0446 9.29138L6.9976 9.46188L6.9396 9.69988L6.7336 9.73838C6.13508 9.86426 5.56736 10.1073 5.0631 10.4534C4.60335 9.66552 4.4311 8.74259 4.57572 7.84193C4.72034 6.94128 5.17288 6.11867 5.85617 5.51435C6.53947 4.91004 7.41123 4.56143 8.3228 4.52797C9.23438 4.49452 10.1293 4.77828 10.8551 5.33088H10.8546ZM2.7526 4.98888L2.8186 5.01688L3.4986 5.33388C3.70295 5.42955 3.86244 5.60047 3.94377 5.81094C4.0251 6.02141 4.02198 6.25516 3.93506 6.46338C3.84815 6.6716 3.68416 6.8382 3.47733 6.92839C3.2705 7.01858 3.03683 7.02538 2.8251 6.94738L2.7591 6.91988L2.0791 6.60288C1.87318 6.50818 1.71203 6.33727 1.6296 6.12614C1.54717 5.915 1.54988 5.68012 1.63716 5.47094C1.72445 5.26177 1.8895 5.09462 2.09756 5.00471C2.30561 4.91479 2.54045 4.90912 2.7526 4.98888ZM12.3076 2.10788C12.4877 2.23381 12.6138 2.42289 12.6608 2.63753C12.7079 2.85217 12.6725 3.07666 12.5616 3.26638L12.5226 3.32638L12.0926 3.94138C11.9635 4.12756 11.7673 4.25642 11.5451 4.30085C11.3229 4.34527 11.0922 4.3018 10.9015 4.17957C10.7107 4.05734 10.5748 3.8659 10.5223 3.6455C10.4698 3.42511 10.5049 3.19295 10.6201 2.99788L10.6591 2.93738L11.0891 2.32288C11.155 2.22869 11.2388 2.14842 11.3358 2.08663C11.4327 2.02485 11.5409 1.98277 11.6541 1.96281C11.7673 1.94284 11.8833 1.94538 11.9955 1.97027C12.1077 1.99516 12.214 2.04192 12.3081 2.10788H12.3076ZM7.1621 1.89838L7.1946 1.97638L7.4511 2.68138C7.52806 2.89263 7.52074 3.1254 7.43066 3.3314C7.34059 3.5374 7.17467 3.70083 6.96734 3.78778C6.76 3.87473 6.52714 3.87853 6.31708 3.79839C6.10701 3.71825 5.93585 3.56033 5.8391 3.35738L5.8066 3.27938L5.5501 2.57438C5.47315 2.36313 5.48047 2.13036 5.57055 1.92436C5.66062 1.71835 5.82653 1.55493 6.03387 1.46798C6.24121 1.38103 6.47407 1.37723 6.68413 1.45737C6.8942 1.53751 7.06536 1.69543 7.1621 1.89838Z" fill="black"/>
</svg>
