<svg width="24" height="24" viewBox="0 0 24 24" fill="none" xmlns="http://www.w3.org/2000/svg">
<path d="M9.00009 17C9.53053 17 10.0392 17.2108 10.4143 17.5858C10.7894 17.9609 11.0001 18.4696 11.0001 19C11.0001 19.5305 10.7894 20.0392 10.4143 20.4143C10.0392 20.7893 9.53053 21 9.00009 21C8.46966 21 7.96095 20.7893 7.58588 20.4143C7.21081 20.0392 7.00009 19.5305 7.00009 19C7.00009 18.4696 7.21081 17.9609 7.58588 17.5858C7.96095 17.2108 8.46966 17 9.00009 17ZM18.7481 9.49404C19.5896 9.50115 20.3955 9.83428 20.9965 10.4234C21.5974 11.0125 21.9465 11.8117 21.9703 12.6529C21.9942 13.4941 21.6909 14.3117 21.1243 14.9339C20.5576 15.5561 19.7718 15.9343 18.9321 15.989L18.7321 15.994L18.6161 16.001H17.8291C17.9391 16.311 17.9991 16.645 17.9991 16.994C17.9991 18.658 16.7371 20 15.0731 20C13.7731 20 12.8381 19.372 12.3851 18.373C12.2791 18.1406 12.2661 17.8765 12.3487 17.6348C12.4312 17.3931 12.6032 17.1922 12.8292 17.0732C13.0552 16.9542 13.3182 16.9263 13.5642 16.995C13.8102 17.0638 14.0205 17.2241 14.1521 17.443L14.2501 17.632C14.3901 17.874 14.6231 18 15.0731 18C15.6031 18 15.9981 17.58 15.9981 16.994C15.9981 16.483 15.6051 16.058 15.0941 16.001H3.00009C2.74366 16.0031 2.49625 15.9065 2.30898 15.7313C2.12172 15.5561 2.00893 15.3156 1.99391 15.0596C1.97888 14.8036 2.06279 14.5517 2.22827 14.3558C2.39376 14.1599 2.62818 14.035 2.88309 14.007L3.00009 14.002H14.8591L14.9761 13.995C15.0391 13.995 15.1021 13.997 15.1651 14.001L18.6271 14.002L18.6871 13.997L18.8761 13.989C19.0923 13.9662 19.2989 13.8873 19.4753 13.7602C19.6517 13.6331 19.7919 13.4622 19.8821 13.2643C19.9723 13.0664 20.0093 12.8484 19.9894 12.6319C19.9696 12.4154 19.8936 12.2078 19.769 12.0296C19.6443 11.8514 19.4754 11.7088 19.2788 11.6159C19.0822 11.5229 18.8648 11.4829 18.648 11.4997C18.4312 11.5165 18.2225 11.5896 18.0426 11.7117C17.8627 11.8338 17.7178 12.0008 17.6221 12.196L17.5251 12.422C17.4087 12.6475 17.2109 12.8204 16.9719 12.9055C16.7328 12.9906 16.4703 12.9816 16.2376 12.8804C16.0049 12.7792 15.8194 12.5933 15.7186 12.3604C15.6179 12.1274 15.6095 11.8649 15.6951 11.626C15.9249 11.0013 16.3409 10.4621 16.8868 10.0812C17.4327 9.70027 18.0824 9.49604 18.7481 9.49604V9.49404ZM9.00009 18.5C8.86748 18.5 8.74031 18.5527 8.64654 18.6465C8.55277 18.7403 8.50009 18.8674 8.50009 19C8.50009 19.1326 8.55277 19.2598 8.64654 19.3536C8.74031 19.4474 8.86748 19.5 9.00009 19.5C9.1327 19.5 9.25988 19.4474 9.35365 19.3536C9.44741 19.2598 9.50009 19.1326 9.50009 19C9.50009 18.8674 9.44741 18.7403 9.35365 18.6465C9.25988 18.5527 9.1327 18.5 9.00009 18.5ZM11.7501 3.49904C12.8773 3.49599 13.9595 3.94083 14.7587 4.7357C15.5579 5.53058 16.0085 6.61037 16.0116 7.73754C16.0146 8.86471 15.5698 9.94692 14.7749 10.7461C13.9801 11.5453 12.9003 11.996 11.7731 11.999H3.00009C2.74521 11.9988 2.50006 11.9012 2.31472 11.7262C2.12939 11.5512 2.01786 11.3121 2.00292 11.0576C1.98798 10.8032 2.07077 10.5527 2.23436 10.3572C2.39795 10.1618 2.63 10.0361 2.88309 10.006L3.00009 10H11.7501L11.9041 9.99404C12.3415 9.96384 12.7605 9.8065 13.1097 9.54138C13.4589 9.27625 13.723 8.91488 13.8696 8.50168C14.0162 8.08848 14.0389 7.64145 13.9348 7.21554C13.8308 6.78963 13.6046 6.40338 13.2841 6.10428C12.9635 5.80518 12.5625 5.60625 12.1304 5.53194C11.6984 5.45763 11.254 5.51117 10.8519 5.686C10.4498 5.86082 10.1076 6.14931 9.86727 6.516C9.62693 6.88269 9.49896 7.31161 9.49909 7.75004C9.49909 8.01526 9.39374 8.26961 9.2062 8.45715C9.01866 8.64468 8.76431 8.75004 8.49909 8.75004C8.23388 8.75004 7.97952 8.64468 7.79199 8.45715C7.60445 8.26961 7.49909 8.01526 7.49909 7.75004C7.49909 6.62287 7.94686 5.54186 8.74389 4.74484C9.54092 3.94781 10.6219 3.50004 11.7491 3.50004L11.7501 3.49904ZM4.00009 4.99904C4.26274 4.99904 4.52281 5.05077 4.76546 5.15128C5.00811 5.25179 5.22859 5.39911 5.41431 5.58483C5.60002 5.77054 5.74734 5.99102 5.84785 6.23367C5.94836 6.47632 6.00009 6.7364 6.00009 6.99904C6.00009 7.26168 5.94836 7.52176 5.84785 7.76441C5.74734 8.00706 5.60002 8.22754 5.41431 8.41325C5.22859 8.59897 5.00811 8.74629 4.76546 8.8468C4.52281 8.94731 4.26274 8.99904 4.00009 8.99904C3.46966 8.99904 2.96095 8.78833 2.58588 8.41325C2.21081 8.03818 2.00009 7.52947 2.00009 6.99904C2.00009 6.46861 2.21081 5.9599 2.58588 5.58483C2.96095 5.20975 3.46966 4.99904 4.00009 4.99904ZM20.0001 3.99904C20.5305 3.99904 21.0392 4.20975 21.4143 4.58483C21.7894 4.9599 22.0001 5.46861 22.0001 5.99904C22.0001 6.52947 21.7894 7.03818 21.4143 7.41325C21.0392 7.78833 20.5305 7.99904 20.0001 7.99904C19.4697 7.99904 18.961 7.78833 18.5859 7.41325C18.2108 7.03818 18.0001 6.52947 18.0001 5.99904C18.0001 5.46861 18.2108 4.9599 18.5859 4.58483C18.961 4.20975 19.4697 3.99904 20.0001 3.99904ZM4.00009 6.50004C3.86748 6.50004 3.74031 6.55272 3.64654 6.64649C3.55277 6.74025 3.50009 6.86743 3.50009 7.00004C3.50009 7.13265 3.55277 7.25982 3.64654 7.35359C3.74031 7.44736 3.86748 7.50004 4.00009 7.50004C4.1327 7.50004 4.25988 7.44736 4.35365 7.35359C4.44741 7.25982 4.50009 7.13265 4.50009 7.00004C4.50009 6.86743 4.44741 6.74025 4.35365 6.64649C4.25988 6.55272 4.1327 6.50004 4.00009 6.50004ZM20.0001 5.50004C19.8675 5.50004 19.7403 5.55272 19.6465 5.64649C19.5528 5.74025 19.5001 5.86743 19.5001 6.00004C19.5001 6.13265 19.5528 6.25982 19.6465 6.35359C19.7403 6.44736 19.8675 6.50004 20.0001 6.50004C20.1327 6.50004 20.2599 6.44736 20.3536 6.35359C20.4474 6.25982 20.5001 6.13265 20.5001 6.00004C20.5001 5.86743 20.4474 5.74025 20.3536 5.64649C20.2599 5.55272 20.1327 5.50004 20.0001 5.50004Z" fill="black"/>
</svg>
