<svg width="24" height="24" viewBox="0 0 24 24" fill="none" xmlns="http://www.w3.org/2000/svg">
<path d="M11.5751 2.5752C11.6308 2.51932 11.697 2.47499 11.7699 2.44474C11.8428 2.4145 11.921 2.39893 11.9999 2.39893C12.0788 2.39893 12.157 2.4145 12.2299 2.44474C12.3028 2.47499 12.369 2.51932 12.4247 2.5752C13.0619 3.2136 14.5895 5.052 15.9599 7.2588C17.3159 9.4428 18.5999 12.1188 18.5999 14.4C18.5999 16.6128 17.9663 18.4224 16.7879 19.6848C15.6083 20.9508 13.9391 21.6 11.9999 21.6C10.0619 21.6 8.3927 20.9508 7.2119 19.6848C6.0323 18.4224 5.3999 16.6128 5.3999 14.4C5.3999 12.1176 6.6839 9.444 8.0399 7.2588C9.4103 5.0508 10.9379 3.2148 11.5751 2.5752ZM9.0599 7.8912C7.7159 10.0572 6.5999 12.4824 6.5999 14.4C6.5999 16.3872 7.1663 17.8776 8.0879 18.8652C9.0083 19.8492 10.3391 20.4 11.9999 20.4C13.6619 20.4 14.9927 19.8492 15.9119 18.8652C16.8335 17.8776 17.3999 16.3872 17.3999 14.4C17.3999 12.4824 16.2839 10.056 14.9399 7.8912C14.0646 6.48148 13.0816 5.1415 11.9999 3.8832C10.9181 5.14148 9.93521 6.48147 9.0599 7.8912Z" fill="#333333"/>
</svg>
