<svg width="24" height="24" viewBox="0 0 24 24" fill="none" xmlns="http://www.w3.org/2000/svg">
<path d="M18.7481 9.49407C19.5896 9.50117 20.3955 9.83431 20.9965 10.4234C21.5974 11.0125 21.9465 11.8117 21.9703 12.6529C21.9942 13.4941 21.6909 14.3117 21.1243 14.9339C20.5576 15.5561 19.7718 15.9343 18.9321 15.9891L18.7321 15.9941L18.6161 16.0011H17.8291C17.9391 16.3111 17.9991 16.6451 17.9991 16.9941C17.9991 18.6581 16.7371 20.0001 15.0731 20.0001C13.7731 20.0001 12.8381 19.3721 12.3851 18.3731C12.2791 18.1407 12.2661 17.8765 12.3487 17.6348C12.4312 17.3931 12.6032 17.1922 12.8292 17.0732C13.0552 16.9543 13.3182 16.9263 13.5642 16.9951C13.8102 17.0638 14.0205 17.2241 14.1521 17.4431L14.2501 17.6321C14.3901 17.8741 14.6231 18.0001 15.0731 18.0001C15.6031 18.0001 15.9981 17.5801 15.9981 16.9941C15.9981 16.4831 15.6051 16.0581 15.0941 16.0011H3.00009C2.74366 16.0031 2.49625 15.9065 2.30898 15.7313C2.12172 15.5561 2.00893 15.3157 1.99391 15.0597C1.97888 14.8037 2.06279 14.5517 2.22827 14.3558C2.39376 14.1599 2.62818 14.035 2.88309 14.0071L3.00009 14.0021H14.8591L14.9761 13.9951C15.0391 13.9951 15.1021 13.9971 15.1651 14.0011L18.6271 14.0021L18.6871 13.9971L18.7471 13.9951L18.8761 13.9891C19.0923 13.9662 19.2989 13.8873 19.4753 13.7602C19.6517 13.6331 19.7919 13.4622 19.8821 13.2643C19.9723 13.0664 20.0093 12.8485 19.9894 12.6319C19.9696 12.4154 19.8936 12.2078 19.769 12.0296C19.6443 11.8514 19.4754 11.7088 19.2788 11.6159C19.0822 11.523 18.8648 11.4829 18.648 11.4997C18.4312 11.5166 18.2225 11.5896 18.0426 11.7117C17.8627 11.8339 17.7178 12.0008 17.6221 12.1961L17.5251 12.4221C17.4087 12.6476 17.2109 12.8204 16.9719 12.9055C16.7328 12.9906 16.4703 12.9817 16.2376 12.8804C16.0049 12.7792 15.8194 12.5933 15.7186 12.3604C15.6179 12.1275 15.6095 11.865 15.6951 11.6261C15.9249 11.0013 16.3409 10.4621 16.8868 10.0812C17.4327 9.7003 18.0824 9.49607 18.7481 9.49607V9.49407ZM11.7501 12.0001H3.00009C2.74366 12.0021 2.49625 11.9055 2.30898 11.7303C2.12172 11.5551 2.00893 11.3147 1.99391 11.0587C1.97888 10.8027 2.06279 10.5507 2.22827 10.3548C2.39376 10.1589 2.62818 10.034 2.88309 10.0061L3.00009 10.0001H11.7501C12.1951 10.0001 12.6301 9.86811 13.0001 9.62087C13.3701 9.37364 13.6585 9.02224 13.8288 8.6111C13.9991 8.19997 14.0437 7.74757 13.9569 7.31111C13.87 6.87466 13.6558 6.47375 13.3411 6.15908C13.0264 5.84441 12.6255 5.63012 12.189 5.5433C11.7526 5.45648 11.3002 5.50104 10.8891 5.67134C10.4779 5.84164 10.1265 6.13002 9.87929 6.50003C9.63205 6.87004 9.50009 7.30506 9.50009 7.75007C9.50009 8.01528 9.39474 8.26964 9.2072 8.45717C9.01966 8.64471 8.76531 8.75007 8.50009 8.75007C8.23488 8.75007 7.98052 8.64471 7.79299 8.45717C7.60545 8.26964 7.50009 8.01528 7.50009 7.75007C7.49998 6.91944 7.74328 6.10699 8.19991 5.41313C8.65653 4.71928 9.30647 4.17444 10.0694 3.84596C10.8323 3.51748 11.6748 3.41976 12.4926 3.56488C13.3105 3.71 14.0679 4.09159 14.6712 4.6625C15.2745 5.2334 15.6973 5.96859 15.8874 6.77719C16.0774 7.58578 16.0263 8.43234 15.7405 9.21222C15.4546 9.99211 14.9464 10.6711 14.2788 11.1653C13.6112 11.6596 12.8135 11.9473 11.9841 11.9931L11.7501 12.0001H3.00009H11.7501Z" fill="#333333"/>
</svg>
