<svg width="24" height="24" viewBox="0 0 24 24" fill="none" xmlns="http://www.w3.org/2000/svg">
<path d="M7.745 19.4999H16.246C16.436 19.5 16.6189 19.5722 16.7578 19.7019C16.8966 19.8316 16.9811 20.0092 16.994 20.1988C17.007 20.3884 16.9475 20.5758 16.8276 20.7232C16.7077 20.8706 16.5362 20.967 16.348 20.9929L16.246 20.9999H7.745C7.55498 20.9998 7.37206 20.9277 7.23321 20.7979C7.09436 20.6682 7.00993 20.4906 6.99697 20.301C6.98402 20.1114 7.04352 19.924 7.16343 19.7766C7.28335 19.6292 7.45475 19.5328 7.643 19.5069L7.745 19.4999H16.246H7.745ZM4.75 16.5199H19.25C19.4388 16.5217 19.6201 16.5946 19.7575 16.7242C19.8949 16.8537 19.9783 17.0303 19.9912 17.2187C20.0041 17.4071 19.9454 17.5935 19.8269 17.7405C19.7084 17.8875 19.5388 17.9845 19.352 18.0119L19.25 18.0189H4.75C4.55998 18.0188 4.37706 17.9467 4.23821 17.8169C4.09936 17.6872 4.01493 17.5096 4.00197 17.32C3.98902 17.1304 4.04852 16.943 4.16843 16.7956C4.28835 16.6482 4.45975 16.5518 4.648 16.5259L4.75 16.5189V16.5199ZM12 3.00391C15.169 3.00391 16.966 5.10091 17.227 7.63391H17.307C17.7914 7.63312 18.2713 7.7278 18.7191 7.91255C19.1669 8.0973 19.574 8.36849 19.9169 8.71062C20.2599 9.05275 20.5321 9.45912 20.7179 9.90649C20.9037 10.3539 20.9996 10.8335 21 11.3179C20.9993 11.8023 20.9033 12.2817 20.7172 12.7289C20.5312 13.1761 20.2589 13.5823 19.9159 13.9243C19.5728 14.2662 19.1658 14.5372 18.7179 14.7217C18.2701 14.9063 17.7904 15.0008 17.306 14.9999H6.693C6.20873 15.0007 5.72905 14.9061 5.28136 14.7215C4.83366 14.5368 4.42673 14.2658 4.08379 13.9239C3.74085 13.582 3.46862 13.1759 3.28266 12.7287C3.09671 12.2816 3.00066 11.8022 3 11.3179C3.00052 10.8336 3.09645 10.3542 3.28228 9.90703C3.46812 9.45983 3.74023 9.05363 4.08308 8.71162C4.42593 8.36961 4.83279 8.09849 5.28043 7.91374C5.72808 7.729 6.20773 7.63425 6.692 7.63491H6.772C7.035 5.08491 8.831 3.00491 11.999 3.00491L12 3.00391Z" fill="black"/>
</svg>
