<svg width="24" height="24" viewBox="0 0 24 24" fill="none" xmlns="http://www.w3.org/2000/svg">
<path d="M11.9995 3.5C15.168 3.5 16.9655 5.5975 17.227 8.13H17.307C19.346 8.13 20.999 9.779 20.999 11.8125C20.999 13.8465 19.346 15.495 17.307 15.495H17.2735L15.1235 19.0745C15.0069 19.2661 14.8211 19.4056 14.6046 19.4642C14.3881 19.5228 14.1573 19.496 13.96 19.3893C13.7627 19.2827 13.6138 19.1043 13.5442 18.8911C13.4746 18.6779 13.4896 18.446 13.586 18.2435L13.6235 18.1735L15.232 15.495H13.2735L11.1235 19.0745C11.0069 19.2661 10.8211 19.4056 10.6046 19.4642C10.3881 19.5228 10.1573 19.496 9.96001 19.3893C9.76268 19.2827 9.61385 19.1043 9.54425 18.8911C9.47465 18.6779 9.48959 18.446 9.586 18.2435L9.6235 18.1735L11.232 15.495H9.2735L7.1235 19.0745C7.00688 19.2661 6.82113 19.4056 6.60461 19.4642C6.38809 19.5228 6.15734 19.496 5.96001 19.3893C5.76268 19.2827 5.61385 19.1043 5.54425 18.8911C5.47465 18.6779 5.48959 18.446 5.586 18.2435L5.6235 18.1735L7.232 15.495H6.692C4.653 15.495 3 13.8465 3 11.8125C3 9.779 4.653 8.13 6.692 8.13H6.772C7.035 5.5805 8.831 3.5 12 3.5H11.9995Z" />
</svg>
