<svg width="24" height="24" viewBox="0 0 24 24" fill="none" xmlns="http://www.w3.org/2000/svg">
<path d="M13.0021 8.01307C16.1701 8.01307 17.9681 10.1101 18.2291 12.6431H18.3091C18.7934 12.6424 19.273 12.7372 19.7207 12.9219C20.1683 13.1066 20.5752 13.3778 20.918 13.7198C21.2609 14.0618 21.533 14.468 21.7188 14.9152C21.9047 15.3624 22.0006 15.8418 22.0011 16.3261C22.0005 16.8103 21.9044 17.2896 21.7186 17.7366C21.5327 18.1837 21.2605 18.5898 20.9177 18.9317C20.5749 19.2736 20.168 19.5446 19.7205 19.7293C19.2729 19.914 18.7933 20.0087 18.3091 20.0081H7.69412C7.20994 20.0087 6.73037 19.914 6.28279 19.7293C5.83521 19.5446 5.42839 19.2736 5.08555 18.9317C4.74272 18.5898 4.47059 18.1837 4.28469 17.7366C4.09879 17.2896 4.00278 16.8103 4.00212 16.3261C4.00265 15.8418 4.09857 15.3624 4.2844 14.9152C4.47024 14.468 4.74235 14.0618 5.0852 13.7198C5.42805 13.3778 5.83491 13.1066 6.28256 12.9219C6.7302 12.7372 7.20985 12.6424 7.69412 12.6431H7.77412C8.03712 10.0931 9.83412 8.01307 13.0021 8.01307ZM6.58912 4.00507C7.38607 4.04805 8.16153 4.27901 8.85212 4.67907C9.86614 5.26261 10.6465 6.1797 11.0601 7.27407C9.07612 7.83607 7.65612 9.27507 7.06612 11.2201L6.99712 11.4661L6.93912 11.7041L6.73312 11.7421C5.60666 11.9807 4.60807 12.6271 3.92912 13.5571C3.21032 13.1762 2.59391 12.6277 2.13212 11.9581C2.06689 11.8634 2.0243 11.7549 2.00765 11.6412C1.99101 11.5274 2.00075 11.4113 2.03613 11.3019C2.07151 11.1924 2.13157 11.0926 2.21168 11.0101C2.29179 10.9276 2.38979 10.8646 2.49812 10.8261C4.14112 10.2381 5.02512 9.57607 5.53212 8.61007C6.08412 7.55507 6.18612 6.43607 5.81912 4.93307C5.79111 4.8192 5.79019 4.70035 5.81643 4.58606C5.84267 4.47178 5.89535 4.36523 5.97022 4.27499C6.0451 4.18475 6.1401 4.11332 6.24758 4.06645C6.35506 4.01957 6.47204 3.99855 6.58912 4.00507Z" fill="black"/>
</svg>
