<svg width="24" height="24" viewBox="0 0 24 24" fill="none" xmlns="http://www.w3.org/2000/svg">
<path d="M13.0011 6.00992C16.1701 6.00992 17.9671 8.10692 18.2291 10.6399H18.3091C19.2868 10.6389 20.2249 11.0262 20.917 11.7166C21.6092 12.4071 21.9988 13.3442 22.0001 14.3219C21.9996 14.8062 21.9037 15.2856 21.7178 15.7328C21.532 16.18 21.2599 16.5862 20.917 16.9282C20.5742 17.2702 20.1673 17.5413 19.7197 17.7261C19.272 17.9108 18.7924 18.0056 18.3081 18.0049L17.6761 17.9999L16.1341 20.6299C16.039 20.7944 15.8851 20.9166 15.7034 20.9719C15.5216 21.0273 15.3257 21.0116 15.1551 20.9281C14.9845 20.8445 14.8519 20.6994 14.7842 20.5219C14.7164 20.3444 14.7186 20.1479 14.7901 19.9719L14.8351 19.8809L15.9441 17.9999H13.8081L12.2651 20.6299C12.17 20.7944 12.0161 20.9166 11.8344 20.9719C11.6526 21.0273 11.4567 21.0116 11.2861 20.9281C11.1155 20.8445 10.9829 20.6994 10.9152 20.5219C10.8474 20.3444 10.8496 20.1479 10.9211 19.9719L10.9661 19.8809L12.0761 17.9999H9.93912L8.39712 20.6299C8.30203 20.7944 8.14808 20.9166 7.96636 20.9719C7.78464 21.0273 7.58869 21.0116 7.41808 20.9281C7.24747 20.8445 7.11491 20.6994 7.04717 20.5219C6.97943 20.3444 6.98156 20.1479 7.05312 19.9719L7.09812 19.8809L8.20712 17.9999H7.60012C5.56112 17.9999 4.00212 16.3559 4.00212 14.3219C4.00278 13.8377 4.09879 13.3584 4.28469 12.9113C4.47059 12.4643 4.74272 12.0582 5.08555 11.7163C5.42839 11.3744 5.83521 11.1033 6.28279 10.9187C6.73037 10.734 7.20994 10.6393 7.69412 10.6399H7.77412C8.03712 8.08992 9.83312 6.00992 13.0001 6.00992H13.0011ZM6.58812 2.00192C7.3854 2.04478 8.16122 2.27574 8.85212 2.67592C9.86596 3.25921 10.6463 4.17592 11.0601 5.26992C9.07512 5.83292 7.65512 7.27192 7.06612 9.21592L6.99612 9.46192L6.93912 9.69992L6.73312 9.73792C5.60666 9.97654 4.60807 10.6229 3.92912 11.5529L3.77412 11.4689C3.12079 11.0925 2.55979 10.5749 2.13212 9.95392C2.06689 9.85922 2.0243 9.75078 2.00765 9.637C1.99101 9.52322 2.00075 9.40713 2.03613 9.29771C2.07151 9.1883 2.13157 9.08848 2.21168 9.00598C2.29179 8.92348 2.38979 8.8605 2.49812 8.82192C4.14012 8.23392 5.02512 7.57192 5.53112 6.60592C6.08412 5.55092 6.18612 4.43192 5.81912 2.92892C5.79111 2.81505 5.79019 2.6962 5.81643 2.58191C5.84267 2.46763 5.89535 2.36108 5.97022 2.27084C6.0451 2.1806 6.1401 2.10917 6.24758 2.06229C6.35506 2.01542 6.47204 1.9944 6.58912 2.00092L6.58812 2.00192Z" fill="black"/>
</svg>
