<svg width="24" height="24" viewBox="0 0 24 24" fill="none" color="#444444" xmlns="http://www.w3.org/2000/svg">
<path d="M13.2 8.4C16.158 8.4 17.8356 10.2888 18.0792 12.5688H18.1536C20.0568 12.5688 21.6 14.0532 21.6 15.8844C21.6 17.7156 20.0568 19.2 18.1536 19.2H8.24638C6.34318 19.2 4.79998 17.7156 4.79998 15.8844C4.79998 14.0532 6.34318 12.5688 8.24638 12.5688H8.32078C8.56678 10.2732 10.242 8.4 13.2 8.4ZM10.0704 4.8C11.8176 4.8 13.3416 5.7936 14.094 7.254C13.7974 7.21763 13.4988 7.1996 13.2 7.2C10.332 7.2 8.24158 8.7684 7.49518 11.1432L7.42078 11.4L7.36558 11.6244L7.16758 11.6604C6.44291 11.808 5.76604 12.1327 5.19735 12.6055C4.62866 13.0783 4.18584 13.6845 3.90838 14.37C3.33671 14.0217 2.89103 13.5002 2.63611 12.8812C2.3812 12.2622 2.33034 11.5781 2.49093 10.9282C2.65152 10.2783 3.0152 9.69663 3.52908 9.26763C4.04297 8.83864 4.68028 8.58473 5.34838 8.5428L5.61478 8.5368C5.79983 7.48959 6.34786 6.54104 7.16266 5.85769C7.97746 5.17433 9.00696 4.79985 10.0704 4.8V4.8Z" />
</svg>

