<svg width="24" height="24" viewBox="0 0 24 24" fill="none" xmlns="http://www.w3.org/2000/svg">
<path d="M12.8976 8.69998C12.8976 8.46128 12.8027 8.23236 12.634 8.06358C12.4652 7.8948 12.2363 7.79998 11.9976 7.79998C11.7589 7.79998 11.53 7.8948 11.3612 8.06358C11.1924 8.23236 11.0976 8.46128 11.0976 8.69998L11.1 14.574C10.5836 14.7828 10.156 15.1648 9.89044 15.6543C9.62484 16.1439 9.53777 16.7106 9.64416 17.2573C9.75055 17.804 10.0438 18.2967 10.4736 18.6509C10.9034 19.0051 11.443 19.1988 12 19.1988C12.5569 19.1988 13.0966 19.0051 13.5264 18.6509C13.9562 18.2967 14.2494 17.804 14.3558 17.2573C14.4622 16.7106 14.3751 16.1439 14.1095 15.6543C13.8439 15.1648 13.4163 14.7828 12.9 14.574L12.8976 8.69998ZM7.79997 6.59998V6.59758C7.81858 5.49675 8.26895 4.44731 9.05402 3.67541C9.83908 2.90351 10.896 2.47095 11.997 2.47095C13.0979 2.47095 14.1549 2.90351 14.9399 3.67541C15.725 4.44731 16.1754 5.49675 16.194 6.59758V13.3992C16.8364 14.1916 17.2413 15.1499 17.3617 16.1629C17.482 17.176 17.3129 18.2024 16.874 19.1233C16.4351 20.0442 15.7443 20.822 14.8816 21.3665C14.0188 21.911 13.0195 22.2 11.9994 22.2C10.9792 22.2 9.97989 21.911 9.11718 21.3665C8.25447 20.822 7.56365 20.0442 7.12473 19.1233C6.6858 18.2024 6.51672 17.176 6.63708 16.1629C6.75743 15.1499 7.16229 14.1916 7.80477 13.3992C7.80477 11.3148 7.79517 8.62318 7.79517 6.59998H7.79997ZM9.59997 6.59758C9.59397 9.09358 9.60477 11.592 9.60477 14.0892L9.36477 14.3484C8.88733 14.8616 8.57011 15.503 8.45202 16.1939C8.33394 16.8849 8.42012 17.5952 8.70001 18.2379C8.9799 18.8805 9.4413 19.4275 10.0276 19.8116C10.6139 20.1958 11.2996 20.4004 12.0006 20.4004C12.7015 20.4004 13.3872 20.1958 13.9735 19.8116C14.5598 19.4275 15.0212 18.8805 15.3011 18.2379C15.581 17.5952 15.6672 16.8849 15.5491 16.1939C15.431 15.503 15.1138 14.8616 14.6364 14.3484L14.3952 14.0892V6.59758C14.3952 5.96169 14.1426 5.35186 13.6929 4.90222C13.2433 4.45258 12.6335 4.19998 11.9976 4.19998C11.3617 4.19998 10.7518 4.45258 10.3022 4.90222C9.85257 5.35186 9.59997 5.96169 9.59997 6.59758Z"/>
</svg>
