<svg width="24" height="24" viewBox="0 0 24 24" fill="none" xmlns="http://www.w3.org/2000/svg">
<path d="M10.7501 20C10.949 20 11.1398 20.079 11.2805 20.2196C11.4211 20.3603 11.5001 20.551 11.5001 20.75C11.5001 20.9489 11.4211 21.1396 11.2805 21.2803C11.1398 21.4209 10.949 21.5 10.7501 21.5C10.5512 21.5 10.3604 21.4209 10.2198 21.2803C10.0791 21.1396 10.0001 20.9489 10.0001 20.75C10.0001 20.551 10.0791 20.3603 10.2198 20.2196C10.3604 20.079 10.5512 20 10.7501 20ZM15.2501 20C15.449 20 15.6398 20.079 15.7805 20.2196C15.9211 20.3603 16.0001 20.551 16.0001 20.75C16.0001 20.9489 15.9211 21.1396 15.7805 21.2803C15.6398 21.4209 15.449 21.5 15.2501 21.5C15.0512 21.5 14.8604 21.4209 14.7198 21.2803C14.5791 21.1396 14.5001 20.9489 14.5001 20.75C14.5001 20.551 14.5791 20.3603 14.7198 20.2196C14.8604 20.079 15.0512 20 15.2501 20ZM8.50012 19C8.69903 19 8.8898 19.079 9.03045 19.2196C9.1711 19.3603 9.25012 19.551 9.25012 19.75C9.25012 19.9489 9.1711 20.1396 9.03045 20.2803C8.8898 20.4209 8.69903 20.5 8.50012 20.5C8.30121 20.5 8.11044 20.4209 7.96979 20.2803C7.82914 20.1396 7.75012 19.9489 7.75012 19.75C7.75012 19.551 7.82914 19.3603 7.96979 19.2196C8.11044 19.079 8.30121 19 8.50012 19ZM13.0001 19C13.199 19 13.3898 19.079 13.5305 19.2196C13.6711 19.3603 13.7501 19.551 13.7501 19.75C13.7501 19.9489 13.6711 20.1396 13.5305 20.2803C13.3898 20.4209 13.199 20.5 13.0001 20.5C12.8012 20.5 12.6104 20.4209 12.4698 20.2803C12.3291 20.1396 12.2501 19.9489 12.2501 19.75C12.2501 19.551 12.3291 19.3603 12.4698 19.2196C12.6104 19.079 12.8012 19 13.0001 19ZM17.5001 19C17.699 19 17.8898 19.079 18.0305 19.2196C18.1711 19.3603 18.2501 19.551 18.2501 19.75C18.2501 19.9489 18.1711 20.1396 18.0305 20.2803C17.8898 20.4209 17.699 20.5 17.5001 20.5C17.3012 20.5 17.1104 20.4209 16.9698 20.2803C16.8291 20.1396 16.7501 19.9489 16.7501 19.75C16.7501 19.551 16.8291 19.3603 16.9698 19.2196C17.1104 19.079 17.3012 19 17.5001 19ZM13.0011 6.01795C16.1701 6.01795 17.9671 8.11495 18.2291 10.648H18.3091C19.2868 10.6469 20.2249 11.0342 20.917 11.7247C21.6092 12.4151 21.9988 13.3523 22.0001 14.33C21.9996 14.8142 21.9037 15.2936 21.7178 15.7408C21.532 16.188 21.2599 16.5942 20.917 16.9362C20.5742 17.2782 20.1673 17.5494 19.7197 17.7341C19.272 17.9189 18.7924 18.0136 18.3081 18.013H7.69412C7.20985 18.0136 6.7302 17.9189 6.28256 17.7341C5.83491 17.5494 5.42805 17.2782 5.0852 16.9362C4.74235 16.5942 4.47024 16.188 4.2844 15.7408C4.09857 15.2936 4.00265 14.8142 4.00212 14.33C4.00278 13.8458 4.09879 13.3665 4.28469 12.9194C4.47059 12.4723 4.74272 12.0662 5.08555 11.7243C5.42839 11.3824 5.83521 11.1114 6.28279 10.9267C6.73037 10.742 7.20994 10.6473 7.69412 10.648H7.77412C8.03712 8.09795 9.83312 6.01795 13.0011 6.01795ZM6.58812 2.00995C7.38541 2.05277 8.16123 2.28374 8.85212 2.68395C9.86614 3.2675 10.6465 4.18458 11.0601 5.27895C9.07512 5.83995 7.65512 7.27995 7.06612 9.22495L6.99612 9.47095L6.93912 9.70895L6.73312 9.74695C5.60666 9.98558 4.60807 10.632 3.92912 11.562L3.77412 11.477C3.12089 11.1008 2.5599 10.5836 2.13212 9.96295C2.06689 9.86825 2.0243 9.75982 2.00765 9.64603C1.99101 9.53225 2.00075 9.41616 2.03613 9.30675C2.07151 9.19733 2.13157 9.09751 2.21168 9.01501C2.29179 8.93251 2.38979 8.86953 2.49812 8.83095C4.14012 8.24295 5.02512 7.57995 5.53012 6.61495C6.08312 5.55995 6.18512 4.44095 5.81812 2.93795C5.79011 2.82408 5.78919 2.70523 5.81543 2.59095C5.84167 2.47666 5.89435 2.37012 5.96922 2.27988C6.0441 2.18963 6.1391 2.11821 6.24658 2.07133C6.35406 2.02445 6.47104 2.00343 6.58812 2.00995Z" fill="black"/>
</svg>
