<svg width="14" height="13" viewBox="0 0 14 13" fill="none" xmlns="http://www.w3.org/2000/svg">
<path d="M7.11071 0.556641C9.48708 0.556641 10.8352 2.12977 11.0313 4.02914H11.0913C12.6206 4.02914 13.8603 5.26589 13.8603 6.79102C13.8603 8.31652 12.6206 9.55289 11.0913 9.55289H11.0662L9.45371 12.2375C9.36624 12.3812 9.22693 12.4859 9.06454 12.5298C8.90215 12.5737 8.72909 12.5536 8.58109 12.4736C8.4331 12.3937 8.32147 12.2599 8.26927 12.1C8.21707 11.94 8.22828 11.7662 8.30058 11.6143L8.32871 11.5618L9.53508 9.55289H8.06621L6.45371 12.2375C6.36624 12.3812 6.22693 12.4859 6.06454 12.5298C5.90215 12.5737 5.72909 12.5536 5.58109 12.4736C5.4331 12.3937 5.32147 12.2599 5.26927 12.1C5.21707 11.94 5.22828 11.7662 5.30058 11.6143L5.32871 11.5618L6.53508 9.55289H5.06621L3.45371 12.2375C3.36624 12.3812 3.22693 12.4859 3.06454 12.5298C2.90215 12.5737 2.72909 12.5536 2.58109 12.4736C2.4331 12.3937 2.32147 12.2599 2.26927 12.1C2.21707 11.94 2.22828 11.7662 2.30058 11.6143L2.32871 11.5618L3.53508 9.55289H3.13008C1.60083 9.55289 0.361084 8.31652 0.361084 6.79102C0.361084 5.26589 1.60083 4.02914 3.13008 4.02914H3.19008C3.38733 2.11702 4.73433 0.556641 7.11108 0.556641H7.11071Z" fill="#666666"/>
</svg>
