<svg width="9" height="16" viewBox="0 0 9 16" fill="none" xmlns="http://www.w3.org/2000/svg">
<path d="M4.96804 5.45668C4.96804 5.27766 4.89692 5.10597 4.77033 4.97939C4.64375 4.8528 4.47206 4.78168 4.29304 4.78168C4.11402 4.78168 3.94233 4.8528 3.81574 4.97939C3.68915 5.10597 3.61804 5.27766 3.61804 5.45668L3.61984 9.86218C3.2326 10.0188 2.9119 10.3053 2.71269 10.6724C2.51349 11.0396 2.44819 11.4646 2.52798 11.8747C2.60777 12.2847 2.82769 12.6542 3.15004 12.9199C3.4724 13.1855 3.87712 13.3308 4.29484 13.3308C4.71256 13.3308 5.11728 13.1855 5.43963 12.9199C5.76198 12.6542 5.9819 12.2847 6.06169 11.8747C6.14149 11.4646 6.07618 11.0396 5.87698 10.6724C5.67778 10.3053 5.35708 10.0188 4.96984 9.86218L4.96804 5.45668ZM1.14484 3.88168V3.87988C1.1588 3.05427 1.49657 2.26718 2.08537 1.68826C2.67417 1.10933 3.46685 0.784912 4.29259 0.784912C5.11832 0.784912 5.911 1.10933 6.4998 1.68826C7.0886 2.26718 7.42638 3.05427 7.44034 3.87988V8.98108C7.9222 9.57542 8.22584 10.2941 8.31611 11.0539C8.40637 11.8137 8.27956 12.5835 7.95037 13.2742C7.62117 13.9649 7.10306 14.5482 6.45603 14.9566C5.809 15.3649 5.05952 15.5817 4.29439 15.5817C3.52926 15.5817 2.77978 15.3649 2.13275 14.9566C1.48572 14.5482 0.967602 13.9649 0.638407 13.2742C0.309212 12.5835 0.182404 11.8137 0.272669 11.0539C0.362934 10.2941 0.666578 9.57542 1.14844 8.98108C1.14844 7.41778 1.14124 5.39908 1.14124 3.88168H1.14484ZM2.49484 3.87988C2.49034 5.75188 2.49844 7.62568 2.49844 9.49858L2.31844 9.69298C1.96036 10.0779 1.72244 10.559 1.63388 11.0772C1.54531 11.5954 1.60995 12.1281 1.81987 12.6101C2.02978 13.0921 2.37584 13.5023 2.81557 13.7904C3.2553 14.0785 3.76958 14.232 4.29529 14.232C4.821 14.232 5.33527 14.0785 5.77501 13.7904C6.21474 13.5023 6.56079 13.0921 6.77071 12.6101C6.98062 12.1281 7.04526 11.5954 6.9567 11.0772C6.86813 10.559 6.63021 10.0779 6.27214 9.69298L6.09124 9.49858V3.87988C6.09124 3.40297 5.90178 2.94559 5.56456 2.60837C5.22733 2.27114 4.76995 2.08168 4.29304 2.08168C3.81613 2.08168 3.35875 2.27114 3.02152 2.60837C2.68429 2.94559 2.49484 3.40297 2.49484 3.87988Z" fill="#666666"/>
</svg>
